<svg width="44" height="44" viewBox="0 0 44 44" fill="none" xmlns="http://www.w3.org/2000/svg">
<path d="M6.00056 0.000562638C5.48881 0.000562638 4.9765 0.1955 4.5865 0.5865L0.5865 4.5865C-0.1955 5.3685 -0.1955 6.63463 0.5865 7.41463L15.1724 22.0006L0.5865 36.5865C-0.1955 37.3685 -0.1955 38.6346 0.5865 39.4146L4.5865 43.4146C5.3685 44.1966 6.63463 44.1966 7.41463 43.4146L22.0006 28.8287L36.5865 43.4146C37.3665 44.1966 38.6346 44.1966 39.4146 43.4146L43.4146 39.4146C44.1966 38.6326 44.1966 37.3665 43.4146 36.5865L28.8287 22.0006L43.4146 7.41463C44.1966 6.63463 44.1966 5.3665 43.4146 4.5865L39.4146 0.5865C38.6326 -0.1955 37.3665 -0.1955 36.5865 0.5865L22.0006 15.1724L7.41463 0.5865C7.02363 0.1955 6.51231 0.000562638 6.00056 0.000562638Z" fill="white"/>
</svg>
