<svg xmlns="http://www.w3.org/2000/svg" aria-hidden="true" style="position:absolute;width:0;height:0;overflow:hidden">
  <defs>
    
    
    <symbol id="send" viewBox="0 0 32 32">
    <path d="M32 2.667l-32 15 10.227 3.156 15.773-12.323-11.998 13.488 0.010 0.003-0.012-0.003v7.345l5.735-5.576 7.265 2.242 5-23.333z"></path>
    </symbol>
    <symbol id="name" viewBox="0 0 32 32">
    <path d="M16 16c4.42 0 8-3.58 8-8s-3.58-8-8-8c-4.42 0-8 3.58-8 8s3.58 8 8 8zM16 20c-5.34 0-16 2.68-16 8v2c0 1.1 0.9 2 2 2h28c1.1 0 2-0.9 2-2v-2c0-5.32-10.66-8-16-8z"></path>
    </symbol>
    <symbol id="phone" viewBox="0 0 32 32">
    <path d="M28.865 21.822l-4.525-0.517c-1.087-0.125-2.155 0.249-2.921 1.015l-3.278 3.278c-5.041-2.565-9.174-6.68-11.739-11.739l3.296-3.296c0.766-0.766 1.14-1.835 1.015-2.921l-0.517-4.489c-0.214-1.799-1.728-3.153-3.545-3.153h-3.082c-2.013 0-3.687 1.675-3.563 3.687 0.944 15.213 13.111 27.362 28.306 28.306 2.013 0.125 3.687-1.55 3.687-3.563v-3.082c0.018-1.799-1.336-3.313-3.135-3.527v0z"></path>
    </symbol>
    <symbol id="email" viewBox="0 0 32 32">
    <path d="M28 4h-24c-1.65 0-2.985 1.35-2.985 3l-0.015 18c0 1.65 1.35 3 3 3h24c1.65 0 3-1.35 3-3v-18c0-1.65-1.35-3-3-3zM27.4 10.375l-10.605 6.63c-0.48 0.3-1.11 0.3-1.59 0l-10.605-6.63c-0.375-0.24-0.6-0.645-0.6-1.080 0-1.005 1.095-1.605 1.95-1.080l10.050 6.285 10.050-6.285c0.855-0.525 1.95 0.075 1.95 1.080 0 0.435-0.225 0.84-0.6 1.080z"></path>
    </symbol>  
    <symbol id="icon-check" viewBox="0 0 40 32">
    <path d="M33.843 1.958c0.657-0.578 1.532-0.897 2.44-0.891s1.777 0.338 2.425 0.925 1.023 1.383 1.047 2.221c0.024 0.838-0.305 1.651-0.919 2.269l-18.62 21.495c-0.32 0.318-0.707 0.574-1.136 0.751s-0.893 0.273-1.364 0.281c-0.47 0.008-0.938-0.072-1.374-0.234s-0.833-0.405-1.166-0.712l-12.348-11.398c-0.344-0.296-0.62-0.652-0.811-1.049s-0.294-0.824-0.302-1.258c-0.008-0.434 0.078-0.865 0.254-1.267s0.438-0.768 0.77-1.075c0.332-0.307 0.728-0.549 1.164-0.711s0.903-0.242 1.373-0.235c0.47 0.008 0.933 0.103 1.363 0.279s0.816 0.431 1.136 0.749l9.772 9.016 16.207-19.062c0.029-0.033 0.060-0.065 0.093-0.095h-0.005z"></path>
    </symbol>
    <symbol id="burger-menu" viewBox="0 0 36 32">
    <path d="M1.2 4c0-1.325 1.075-2.4 2.4-2.4h28.8c1.325 0 2.4 1.075 2.4 2.4s-1.075 2.4-2.4 2.4h-28.8c-1.325 0-2.4-1.075-2.4-2.4v0zM1.2 16c0-1.325 1.075-2.4 2.4-2.4h28.8c1.325 0 2.4 1.075 2.4 2.4s-1.075 2.4-2.4 2.4h-28.8c-1.325 0-2.4-1.075-2.4-2.4v0zM1.2 28c0-1.325 1.075-2.4 2.4-2.4h28.8c1.325 0 2.4 1.075 2.4 2.4s-1.075 2.4-2.4 2.4h-28.8c-1.325 0-2.4-1.075-2.4-2.4v0z"></path>
    </symbol>
</defs>
</svg>
