<?xml version="1.0" encoding="UTF-8"?>
<svg id="Layer_1" xmlns="http://www.w3.org/2000/svg" version="1.1" viewBox="0 0 466.71 456.29">
  <!-- Generator: Adobe Illustrator 29.8.2, SVG Export Plug-In . SVG Version: 2.1.1 Build 3)  -->
  <defs>
    <style>
      .st0, .st1, .st2, .st3, .st4, .st5, .st6 {
        fill: none;
        stroke-miterlimit: 10;
      }

      .st0, .st7, .st3 {
        font-size: 203.43px;
      }

      .st0, .st7, .st3, .st8, .st4, .st9, .st5, .st10, .st6, .st11 {
        isolation: isolate;
      }

      .st0, .st7, .st3, .st4, .st9, .st5, .st10, .st6, .st11 {
        font-family: Apple-Chancery, 'Apple Chancery';
      }

      .st0, .st3, .st4, .st5, .st6 {
        stroke: #231f20;
      }

      .st1 {
        stroke-width: 7px;
      }

      .st1, .st2 {
        stroke: #fff;
      }

      .st2 {
        stroke-width: 15px;
      }

      .st7, .st9, .st10 {
        fill: #fff;
      }

      .st3 {
        stroke-width: 3px;
      }

      .st4, .st9, .st6 {
        font-size: 105.27px;
      }

      .st5, .st10, .st11 {
        font-size: 219.47px;
      }

      .st5, .st6 {
        stroke-width: 2px;
      }

      .st11 {
        fill: #c7c8ca;
      }
    </style>
  </defs>
  <ellipse class="st1" cx="212.63" cy="255.91" rx="209.13" ry="192.87"/>
  <ellipse class="st2" cx="248.95" cy="228.14" rx="210.26" ry="220.64"/>
  <g class="st8">
    <g class="st8">
      <text class="st7" transform="translate(99.56 197.92) scale(1.32 1)"><tspan x="0" y="0">A</tspan></text>
      <text class="st0" transform="translate(99.56 197.92) scale(1.32 1)"><tspan x="0" y="0">A</tspan></text>
    </g>
    <g class="st8">
      <text class="st7" transform="translate(99.56 197.92) scale(1.32 1)"><tspan x="0" y="0">A</tspan></text>
      <text class="st3" transform="translate(99.56 197.92) scale(1.32 1)"><tspan x="0" y="0">A</tspan></text>
    </g>
  </g>
  <g class="st8">
    <g class="st8">
      <text class="st11" transform="translate(207.84 273.36) scale(1.21 1)"><tspan x="0" y="0">L</tspan></text>
    </g>
    <g class="st8">
      <text class="st10" transform="translate(207.84 273.36) scale(1.21 1)"><tspan x="0" y="0">L</tspan></text>
      <text class="st5" transform="translate(207.84 273.36) scale(1.21 1)"><tspan x="0" y="0">L</tspan></text>
    </g>
  </g>
  <g class="st8">
    <g class="st8">
      <text class="st9" transform="translate(187.56 375.36) scale(1.12 1)"><tspan x="0" y="0">fo</tspan></text>
      <text class="st4" transform="translate(187.56 375.36) scale(1.12 1)"><tspan x="0" y="0">fo</tspan></text>
      <text class="st9" transform="translate(274.9 375.36) scale(1.12 1)"><tspan x="0" y="0">t</tspan></text>
      <text class="st4" transform="translate(274.9 375.36) scale(1.12 1)"><tspan x="0" y="0">t</tspan></text>
      <text class="st9" transform="translate(315.77 375.36) scale(1.12 1)"><tspan x="0" y="0">o</tspan></text>
      <text class="st4" transform="translate(315.77 375.36) scale(1.12 1)"><tspan x="0" y="0">o</tspan></text>
    </g>
    <g class="st8">
      <text class="st9" transform="translate(187.56 375.36) scale(1.12 1)"><tspan x="0" y="0">fo</tspan></text>
      <text class="st6" transform="translate(187.56 375.36) scale(1.12 1)"><tspan x="0" y="0">fo</tspan></text>
      <text class="st9" transform="translate(274.9 375.36) scale(1.12 1)"><tspan x="0" y="0">t</tspan></text>
      <text class="st6" transform="translate(274.9 375.36) scale(1.12 1)"><tspan x="0" y="0">t</tspan></text>
      <text class="st9" transform="translate(315.77 375.36) scale(1.12 1)"><tspan x="0" y="0">o</tspan></text>
      <text class="st6" transform="translate(315.77 375.36) scale(1.12 1)"><tspan x="0" y="0">o</tspan></text>
    </g>
  </g>
</svg>