<svg width="53" height="34" viewBox="0 0 53 34" fill="none" xmlns="http://www.w3.org/2000/svg">
<path d="M2.02849 0.000208621C1.76346 -0.00370074 1.50034 0.0473686 1.2544 0.150448C1.00846 0.253528 0.78462 0.406562 0.595881 0.600658C0.407141 0.794754 0.257269 1.02604 0.154974 1.28108C0.0526783 1.53611 0 1.80981 0 2.08626C0 2.36272 0.0526783 2.63642 0.154974 2.89145C0.257269 3.14649 0.407141 3.37777 0.595881 3.57187C0.78462 3.76596 1.00846 3.919 1.2544 4.02208C1.50034 4.12516 1.76346 4.17623 2.02849 4.17232H50.0285C50.2935 4.17623 50.5566 4.12516 50.8026 4.02208C51.0485 3.919 51.2724 3.76596 51.4611 3.57187C51.6498 3.37777 51.7997 3.14649 51.902 2.89145C52.0043 2.63642 52.057 2.36272 52.057 2.08626C52.057 1.80981 52.0043 1.53611 51.902 1.28108C51.7997 1.02604 51.6498 0.794754 51.4611 0.600658C51.2724 0.406562 51.0485 0.253528 50.8026 0.150448C50.5566 0.0473686 50.2935 -0.00370074 50.0285 0.000208621H2.02849ZM2.02849 14.6026C1.76346 14.5987 1.50034 14.6497 1.2544 14.7528C1.00846 14.8559 0.78462 15.0089 0.595881 15.203C0.407141 15.3971 0.257269 15.6284 0.154974 15.8835C0.0526783 16.1385 0 16.4122 0 16.6886C0 16.9651 0.0526783 17.2388 0.154974 17.4938C0.257269 17.7489 0.407141 17.9802 0.595881 18.1742C0.78462 18.3683 1.00846 18.5214 1.2544 18.6245C1.50034 18.7275 1.76346 18.7786 2.02849 18.7747H50.0285C50.2935 18.7786 50.5566 18.7275 50.8026 18.6245C51.0485 18.5214 51.2724 18.3683 51.4611 18.1742C51.6498 17.9802 51.7997 17.7489 51.902 17.4938C52.0043 17.2388 52.057 16.9651 52.057 16.6886C52.057 16.4122 52.0043 16.1385 51.902 15.8835C51.7997 15.6284 51.6498 15.3971 51.4611 15.203C51.2724 15.0089 51.0485 14.8559 50.8026 14.7528C50.5566 14.6497 50.2935 14.5987 50.0285 14.6026H2.02849ZM2.02849 29.205C1.76346 29.2011 1.50034 29.2521 1.2544 29.3552C1.00846 29.4583 0.78462 29.6113 0.595881 29.8054C0.407141 29.9995 0.257269 30.2308 0.154974 30.4858C0.0526783 30.7409 0 31.0146 0 31.291C0 31.5675 0.0526783 31.8412 0.154974 32.0962C0.257269 32.3512 0.407141 32.5825 0.595881 32.7766C0.78462 32.9707 1.00846 33.1238 1.2544 33.2268C1.50034 33.3299 1.76346 33.381 2.02849 33.3771H50.0285C50.2935 33.381 50.5566 33.3299 50.8026 33.2268C51.0485 33.1238 51.2724 32.9707 51.4611 32.7766C51.6498 32.5825 51.7997 32.3512 51.902 32.0962C52.0043 31.8412 52.057 31.5675 52.057 31.291C52.057 31.0146 52.0043 30.7409 51.902 30.4858C51.7997 30.2308 51.6498 29.9995 51.4611 29.8054C51.2724 29.6113 51.0485 29.4583 50.8026 29.3552C50.5566 29.2521 50.2935 29.2011 50.0285 29.205H2.02849Z" fill="white"/>
</svg>
